%TF.GenerationSoftware,KiCad,Pcbnew,9.0.3*%
%TF.CreationDate,2025-07-29T21:44:48-04:00*%
%TF.ProjectId,[DFR1142]Lite Carrier for LattePanda Mu,5b444652-3131-4343-925d-4c6974652043,rev?*%
%TF.SameCoordinates,Original*%
%TF.FileFunction,Soldermask,Top*%
%TF.FilePolarity,Negative*%
%FSLAX46Y46*%
G04 Gerber Fmt 4.6, Leading zero omitted, Abs format (unit mm)*
G04 Created by KiCad (PCBNEW 9.0.3) date 2025-07-29 21:44:48*
%MOMM*%
%LPD*%
G01*
G04 APERTURE LIST*
G04 Aperture macros list*
%AMRoundRect*
0 Rectangle with rounded corners*
0 $1 Rounding radius*
0 $2 $3 $4 $5 $6 $7 $8 $9 X,Y pos of 4 corners*
0 Add a 4 corners polygon primitive as box body*
4,1,4,$2,$3,$4,$5,$6,$7,$8,$9,$2,$3,0*
0 Add four circle primitives for the rounded corners*
1,1,$1+$1,$2,$3*
1,1,$1+$1,$4,$5*
1,1,$1+$1,$6,$7*
1,1,$1+$1,$8,$9*
0 Add four rect primitives between the rounded corners*
20,1,$1+$1,$2,$3,$4,$5,0*
20,1,$1+$1,$4,$5,$6,$7,0*
20,1,$1+$1,$6,$7,$8,$9,0*
20,1,$1+$1,$8,$9,$2,$3,0*%
%AMFreePoly0*
4,1,14,0.085355,0.385355,0.100000,0.350000,0.100000,-0.350000,0.085355,-0.385355,0.050000,-0.400000,0.020711,-0.400000,-0.014644,-0.385355,-0.085355,-0.314644,-0.100000,-0.279289,-0.100000,0.350000,-0.085355,0.385355,-0.050000,0.400000,0.050000,0.400000,0.085355,0.385355,0.085355,0.385355,$1*%
%AMFreePoly1*
4,1,14,0.085355,0.385355,0.100000,0.350000,0.100000,-0.279289,0.085355,-0.314644,0.014644,-0.385355,-0.020711,-0.400000,-0.050000,-0.400000,-0.085355,-0.385355,-0.100000,-0.350000,-0.100000,0.350000,-0.085355,0.385355,-0.050000,0.400000,0.050000,0.400000,0.085355,0.385355,0.085355,0.385355,$1*%
%AMFreePoly2*
4,1,14,0.385355,0.085355,0.400000,0.050000,0.400000,-0.050000,0.385355,-0.085355,0.350000,-0.100000,-0.350000,-0.100000,-0.385355,-0.085355,-0.400000,-0.050000,-0.400000,-0.020711,-0.385355,0.014644,-0.314644,0.085355,-0.279289,0.100000,0.350000,0.100000,0.385355,0.085355,0.385355,0.085355,$1*%
%AMFreePoly3*
4,1,14,0.385355,0.085355,0.400000,0.050000,0.400000,-0.050000,0.385355,-0.085355,0.350000,-0.100000,-0.279289,-0.100000,-0.314644,-0.085355,-0.385355,-0.014644,-0.400000,0.020711,-0.400000,0.050000,-0.385355,0.085355,-0.350000,0.100000,0.350000,0.100000,0.385355,0.085355,0.385355,0.085355,$1*%
%AMFreePoly4*
4,1,14,0.014644,0.385355,0.085355,0.314644,0.100000,0.279289,0.100000,-0.350000,0.085355,-0.385355,0.050000,-0.400000,-0.050000,-0.400000,-0.085355,-0.385355,-0.100000,-0.350000,-0.100000,0.350000,-0.085355,0.385355,-0.050000,0.400000,-0.020711,0.400000,0.014644,0.385355,0.014644,0.385355,$1*%
%AMFreePoly5*
4,1,14,0.085355,0.385355,0.100000,0.350000,0.100000,-0.350000,0.085355,-0.385355,0.050000,-0.400000,-0.050000,-0.400000,-0.085355,-0.385355,-0.100000,-0.350000,-0.100000,0.279289,-0.085355,0.314644,-0.014644,0.385355,0.020711,0.400000,0.050000,0.400000,0.085355,0.385355,0.085355,0.385355,$1*%
%AMFreePoly6*
4,1,14,0.385355,0.085355,0.400000,0.050000,0.400000,0.020711,0.385355,-0.014644,0.314644,-0.085355,0.279289,-0.100000,-0.350000,-0.100000,-0.385355,-0.085355,-0.400000,-0.050000,-0.400000,0.050000,-0.385355,0.085355,-0.350000,0.100000,0.350000,0.100000,0.385355,0.085355,0.385355,0.085355,$1*%
%AMFreePoly7*
4,1,14,0.314644,0.085355,0.385355,0.014644,0.400000,-0.020711,0.400000,-0.050000,0.385355,-0.085355,0.350000,-0.100000,-0.350000,-0.100000,-0.385355,-0.085355,-0.400000,-0.050000,-0.400000,0.050000,-0.385355,0.085355,-0.350000,0.100000,0.279289,0.100000,0.314644,0.085355,0.314644,0.085355,$1*%
G04 Aperture macros list end*
%ADD10C,0.800000*%
%ADD11C,6.400000*%
%ADD12R,0.250000X0.625000*%
%ADD13R,0.400000X0.700000*%
%ADD14R,0.400000X0.575000*%
%ADD15RoundRect,0.135000X0.185000X-0.135000X0.185000X0.135000X-0.185000X0.135000X-0.185000X-0.135000X0*%
%ADD16R,1.700000X1.700000*%
%ADD17C,1.700000*%
%ADD18RoundRect,0.135000X-0.135000X-0.185000X0.135000X-0.185000X0.135000X0.185000X-0.135000X0.185000X0*%
%ADD19RoundRect,0.135000X0.135000X0.185000X-0.135000X0.185000X-0.135000X-0.185000X0.135000X-0.185000X0*%
%ADD20RoundRect,0.162500X-0.650000X-0.162500X0.650000X-0.162500X0.650000X0.162500X-0.650000X0.162500X0*%
%ADD21RoundRect,0.062500X-0.062500X0.117500X-0.062500X-0.117500X0.062500X-0.117500X0.062500X0.117500X0*%
%ADD22RoundRect,0.140000X0.170000X-0.140000X0.170000X0.140000X-0.170000X0.140000X-0.170000X-0.140000X0*%
%ADD23RoundRect,0.218750X0.218750X0.256250X-0.218750X0.256250X-0.218750X-0.256250X0.218750X-0.256250X0*%
%ADD24RoundRect,0.140000X-0.140000X-0.170000X0.140000X-0.170000X0.140000X0.170000X-0.140000X0.170000X0*%
%ADD25R,2.300000X4.500000*%
%ADD26C,1.300000*%
%ADD27C,1.050000*%
%ADD28RoundRect,0.225000X-0.225000X-0.250000X0.225000X-0.250000X0.225000X0.250000X-0.225000X0.250000X0*%
%ADD29RoundRect,0.140000X-0.170000X0.140000X-0.170000X-0.140000X0.170000X-0.140000X0.170000X0.140000X0*%
%ADD30RoundRect,0.140000X0.140000X0.170000X-0.140000X0.170000X-0.140000X-0.170000X0.140000X-0.170000X0*%
%ADD31RoundRect,0.225000X0.225000X0.250000X-0.225000X0.250000X-0.225000X-0.250000X0.225000X-0.250000X0*%
%ADD32RoundRect,0.147500X0.147500X0.172500X-0.147500X0.172500X-0.147500X-0.172500X0.147500X-0.172500X0*%
%ADD33RoundRect,0.147500X0.172500X-0.147500X0.172500X0.147500X-0.172500X0.147500X-0.172500X-0.147500X0*%
%ADD34RoundRect,0.147500X-0.147500X-0.172500X0.147500X-0.172500X0.147500X0.172500X-0.147500X0.172500X0*%
%ADD35RoundRect,0.200000X0.200000X0.275000X-0.200000X0.275000X-0.200000X-0.275000X0.200000X-0.275000X0*%
%ADD36RoundRect,0.250000X0.450000X-0.262500X0.450000X0.262500X-0.450000X0.262500X-0.450000X-0.262500X0*%
%ADD37RoundRect,0.243750X0.456250X-0.243750X0.456250X0.243750X-0.456250X0.243750X-0.456250X-0.243750X0*%
%ADD38RoundRect,0.243750X0.243750X0.456250X-0.243750X0.456250X-0.243750X-0.456250X0.243750X-0.456250X0*%
%ADD39RoundRect,0.243750X-0.243750X-0.456250X0.243750X-0.456250X0.243750X0.456250X-0.243750X0.456250X0*%
%ADD40C,1.000000*%
%ADD41O,1.700000X1.700000*%
%ADD42O,1.500000X2.300000*%
%ADD43O,1.500000X3.300000*%
%ADD44R,0.300000X2.600000*%
%ADD45C,2.500000*%
%ADD46C,1.900000*%
%ADD47R,1.900000X1.900000*%
%ADD48C,3.250000*%
%ADD49R,1.200000X2.750000*%
%ADD50R,0.300000X1.550000*%
%ADD51C,1.650000*%
%ADD52C,1.150000*%
%ADD53C,1.600000*%
%ADD54C,1.100000*%
%ADD55O,1.500000X2.700000*%
%ADD56O,3.700000X1.500000*%
%ADD57C,2.200000*%
%ADD58O,1.000000X1.800000*%
%ADD59O,1.000000X2.100000*%
%ADD60R,0.600000X1.240000*%
%ADD61R,0.300000X1.240000*%
%ADD62C,0.650000*%
%ADD63O,2.520000X3.400000*%
%ADD64RoundRect,0.225000X0.225000X0.850000X-0.225000X0.850000X-0.225000X-0.850000X0.225000X-0.850000X0*%
%ADD65RoundRect,0.225000X0.225000X1.075000X-0.225000X1.075000X-0.225000X-1.075000X0.225000X-1.075000X0*%
%ADD66C,2.000000*%
%ADD67O,1.200000X2.900000*%
%ADD68RoundRect,0.325000X-0.325000X-1.175000X0.325000X-1.175000X0.325000X1.175000X-0.325000X1.175000X0*%
%ADD69R,0.889000X2.387600*%
%ADD70R,2.387600X0.889000*%
%ADD71R,3.700000X1.100000*%
%ADD72O,1.750000X1.200000*%
%ADD73RoundRect,0.250000X0.625000X-0.350000X0.625000X0.350000X-0.625000X0.350000X-0.625000X-0.350000X0*%
%ADD74RoundRect,0.150000X0.150000X-0.587500X0.150000X0.587500X-0.150000X0.587500X-0.150000X-0.587500X0*%
%ADD75RoundRect,0.150000X0.587500X0.150000X-0.587500X0.150000X-0.587500X-0.150000X0.587500X-0.150000X0*%
%ADD76RoundRect,0.135000X-0.185000X0.135000X-0.185000X-0.135000X0.185000X-0.135000X0.185000X0.135000X0*%
%ADD77R,2.650000X2.650000*%
%ADD78FreePoly0,270.000000*%
%ADD79RoundRect,0.050000X-0.350000X0.050000X-0.350000X-0.050000X0.350000X-0.050000X0.350000X0.050000X0*%
%ADD80FreePoly1,270.000000*%
%ADD81FreePoly2,270.000000*%
%ADD82RoundRect,0.050000X-0.050000X0.350000X-0.050000X-0.350000X0.050000X-0.350000X0.050000X0.350000X0*%
%ADD83FreePoly3,270.000000*%
%ADD84FreePoly4,270.000000*%
%ADD85FreePoly5,270.000000*%
%ADD86FreePoly6,270.000000*%
%ADD87FreePoly7,270.000000*%
%ADD88R,0.510000X1.100000*%
%ADD89R,3.200000X2.300000*%
%ADD90RoundRect,0.150000X-0.150000X0.512500X-0.150000X-0.512500X0.150000X-0.512500X0.150000X0.512500X0*%
%ADD91RoundRect,0.150000X0.150000X-0.512500X0.150000X0.512500X-0.150000X0.512500X-0.150000X-0.512500X0*%
%ADD92R,1.200000X1.400000*%
%ADD93C,0.900000*%
%ADD94C,8.000000*%
%ADD95RoundRect,0.112500X-0.187500X-0.112500X0.187500X-0.112500X0.187500X0.112500X-0.187500X0.112500X0*%
%ADD96R,0.450000X0.700000*%
%ADD97R,0.450000X0.575000*%
%ADD98C,1.500000*%
%ADD99RoundRect,0.250000X1.000000X0.650000X-1.000000X0.650000X-1.000000X-0.650000X1.000000X-0.650000X0*%
%ADD100RoundRect,0.250000X-1.000000X-0.650000X1.000000X-0.650000X1.000000X0.650000X-1.000000X0.650000X0*%
%ADD101RoundRect,0.250000X0.350000X-0.450000X0.350000X0.450000X-0.350000X0.450000X-0.350000X-0.450000X0*%
%ADD102RoundRect,0.218750X-0.256250X0.218750X-0.256250X-0.218750X0.256250X-0.218750X0.256250X0.218750X0*%
%ADD103RoundRect,0.250000X0.250000X-0.750000X0.250000X0.750000X-0.250000X0.750000X-0.250000X-0.750000X0*%
%ADD104C,3.200000*%
%ADD105C,4.400000*%
%ADD106RoundRect,0.250000X-0.250000X-0.475000X0.250000X-0.475000X0.250000X0.475000X-0.250000X0.475000X0*%
%ADD107RoundRect,0.218750X-0.218750X-0.256250X0.218750X-0.256250X0.218750X0.256250X-0.218750X0.256250X0*%
%ADD108RoundRect,0.112500X0.112500X-0.187500X0.112500X0.187500X-0.112500X0.187500X-0.112500X-0.187500X0*%
%ADD109O,1.000000X0.280000*%
%ADD110O,0.280000X1.000000*%
%ADD111R,4.100000X4.100000*%
%ADD112RoundRect,0.250000X-0.850000X0.375000X-0.850000X-0.375000X0.850000X-0.375000X0.850000X0.375000X0*%
%ADD113R,2.000000X3.500000*%
%ADD114R,0.300000X1.750000*%
G04 APERTURE END LIST*
D10*
%TO.C,H1*%
X122992573Y-58020627D03*
X124689629Y-58723571D03*
X121295517Y-58723571D03*
X125392573Y-60420627D03*
D11*
X122992573Y-60420627D03*
D10*
X120592573Y-60420627D03*
X124689629Y-62117683D03*
X121295517Y-62117683D03*
X122992573Y-62820627D03*
%TD*%
D12*
%TO.C,U12*%
X199900000Y-180740000D03*
X200400000Y-180740000D03*
D13*
X200900000Y-180702500D03*
D12*
X201400000Y-180740000D03*
X201900000Y-180740000D03*
X201900000Y-179965000D03*
X201400000Y-179965000D03*
D14*
X200900000Y-179940000D03*
D12*
X200400000Y-179965000D03*
X199900000Y-179965000D03*
%TD*%
D15*
%TO.C,R95*%
X232925000Y-79835000D03*
X232925000Y-78815000D03*
%TD*%
D16*
%TO.C,J88*%
X235410000Y-78825000D03*
D17*
X237950000Y-78825000D03*
X240490000Y-78825000D03*
%TD*%
D18*
%TO.C,R88*%
X228047500Y-87490000D03*
X227027500Y-87490000D03*
%TD*%
%TO.C,R92*%
X228047500Y-90040000D03*
X227027500Y-90040000D03*
%TD*%
%TO.C,R89*%
X240532500Y-90040000D03*
X239512500Y-90040000D03*
%TD*%
D19*
%TO.C,R90*%
X239527500Y-91315000D03*
X240547500Y-91315000D03*
%TD*%
D18*
%TO.C,R91*%
X228047500Y-88765000D03*
X227027500Y-88765000D03*
%TD*%
D19*
%TO.C,R93*%
X239512500Y-88765000D03*
X240532500Y-88765000D03*
%TD*%
D20*
%TO.C,U79*%
X237362500Y-87495000D03*
X237362500Y-88765000D03*
X237362500Y-90035000D03*
X237362500Y-91305000D03*
X230187500Y-91305000D03*
X230187500Y-90035000D03*
X230187500Y-88765000D03*
X230187500Y-87495000D03*
%TD*%
D19*
%TO.C,R94*%
X232310000Y-85725000D03*
X231290000Y-85725000D03*
%TD*%
D21*
%TO.C,D79*%
X233725000Y-85722500D03*
X233725000Y-84882500D03*
%TD*%
D22*
%TO.C,C122*%
X236370000Y-85750000D03*
X236370000Y-84790000D03*
%TD*%
%TO.C,C121*%
X237375000Y-85750000D03*
X237375000Y-84790000D03*
%TD*%
D19*
%TO.C,R87*%
X208685000Y-150325000D03*
X207665000Y-150325000D03*
%TD*%
D23*
%TO.C,D78*%
X208687500Y-151675000D03*
X207112500Y-151675000D03*
%TD*%
D24*
%TO.C,C114*%
X125050000Y-134080000D03*
X124090000Y-134080000D03*
%TD*%
%TO.C,C118*%
X125055000Y-133080000D03*
X124095000Y-133080000D03*
%TD*%
D25*
%TO.C,BT1*%
X170025000Y-80800000D03*
X170025000Y-97200000D03*
D26*
X170025000Y-92725000D03*
D27*
X170025000Y-85275000D03*
%TD*%
D22*
%TO.C,C17*%
X211025000Y-77250000D03*
X211025000Y-78210000D03*
%TD*%
%TO.C,C18*%
X211950000Y-77250000D03*
X211950000Y-78210000D03*
%TD*%
%TO.C,C19*%
X213525000Y-77250000D03*
X213525000Y-78210000D03*
%TD*%
%TO.C,C20*%
X214450000Y-77250000D03*
X214450000Y-78210000D03*
%TD*%
%TO.C,C21*%
X216075000Y-77245000D03*
X216075000Y-78205000D03*
%TD*%
%TO.C,C22*%
X217000000Y-77245000D03*
X217000000Y-78205000D03*
%TD*%
%TO.C,C23*%
X218555621Y-77245000D03*
X218555621Y-78205000D03*
%TD*%
%TO.C,C24*%
X219475000Y-77245000D03*
X219475000Y-78205000D03*
%TD*%
D24*
%TO.C,C25*%
X226010000Y-70375000D03*
X225050000Y-70375000D03*
%TD*%
D22*
%TO.C,C26*%
X264250000Y-80882500D03*
X264250000Y-81842500D03*
%TD*%
%TO.C,C27*%
X265250000Y-80882500D03*
X265250000Y-81842500D03*
%TD*%
%TO.C,C28*%
X246288999Y-80900000D03*
X246288999Y-81860000D03*
%TD*%
%TO.C,C29*%
X247288999Y-80895000D03*
X247288999Y-81855000D03*
%TD*%
D28*
%TO.C,C31*%
X272275000Y-74575000D03*
X270725000Y-74575000D03*
%TD*%
%TO.C,C32*%
X254288999Y-74525000D03*
X252738999Y-74525000D03*
%TD*%
D22*
%TO.C,C33*%
X188166150Y-94270000D03*
X188166150Y-95230000D03*
%TD*%
D29*
%TO.C,C34*%
X191842669Y-87950793D03*
X191842669Y-86990793D03*
%TD*%
%TO.C,C35*%
X188566150Y-85850000D03*
X188566150Y-84890000D03*
%TD*%
%TO.C,C36*%
X185691150Y-85855000D03*
X185691150Y-84895000D03*
%TD*%
D24*
%TO.C,C37*%
X183730000Y-86950000D03*
X182770000Y-86950000D03*
%TD*%
D30*
%TO.C,C38*%
X182640000Y-90325000D03*
X183600000Y-90325000D03*
%TD*%
D29*
%TO.C,C39*%
X185191150Y-95255000D03*
X185191150Y-94295000D03*
%TD*%
D22*
%TO.C,C40*%
X191166150Y-94270000D03*
X191166150Y-95230000D03*
%TD*%
D29*
%TO.C,C41*%
X190316150Y-85855000D03*
X190316150Y-84895000D03*
%TD*%
D30*
%TO.C,C42*%
X182640000Y-89350000D03*
X183600000Y-89350000D03*
%TD*%
D29*
%TO.C,C43*%
X184266150Y-95255000D03*
X184266150Y-94295000D03*
%TD*%
D22*
%TO.C,C44*%
X190166150Y-94270000D03*
X190166150Y-95230000D03*
%TD*%
%TO.C,C45*%
X189166150Y-94270000D03*
X189166150Y-95230000D03*
%TD*%
D30*
%TO.C,C46*%
X192982669Y-86700793D03*
X193942669Y-86700793D03*
%TD*%
%TO.C,C47*%
X192967669Y-91975793D03*
X193927669Y-91975793D03*
%TD*%
D29*
%TO.C,C48*%
X192925000Y-79700000D03*
X192925000Y-78740000D03*
%TD*%
%TO.C,C49*%
X150150000Y-105905000D03*
X150150000Y-104945000D03*
%TD*%
%TO.C,C50*%
X149175000Y-105905000D03*
X149175000Y-104945000D03*
%TD*%
D22*
%TO.C,C51*%
X139275000Y-118565000D03*
X139275000Y-119525000D03*
%TD*%
%TO.C,C52*%
X140275000Y-118565000D03*
X140275000Y-119525000D03*
%TD*%
%TO.C,C53*%
X155425000Y-118620000D03*
X155425000Y-119580000D03*
%TD*%
%TO.C,C54*%
X156425000Y-118615000D03*
X156425000Y-119575000D03*
%TD*%
%TO.C,C55*%
X172450000Y-118445000D03*
X172450000Y-119405000D03*
%TD*%
%TO.C,C56*%
X173450000Y-118445000D03*
X173450000Y-119405000D03*
%TD*%
%TO.C,C57*%
X185025000Y-118425000D03*
X185025000Y-119385000D03*
%TD*%
%TO.C,C58*%
X186000000Y-118425000D03*
X186000000Y-119385000D03*
%TD*%
%TO.C,C59*%
X166450000Y-118425000D03*
X166450000Y-119385000D03*
%TD*%
%TO.C,C60*%
X167450000Y-118425000D03*
X167450000Y-119385000D03*
%TD*%
D29*
%TO.C,C61*%
X159747387Y-69326000D03*
X159747387Y-68366000D03*
%TD*%
D28*
%TO.C,C64*%
X270600000Y-92225000D03*
X269050000Y-92225000D03*
%TD*%
D31*
%TO.C,C65*%
X255813999Y-79350000D03*
X257363999Y-79350000D03*
%TD*%
D30*
%TO.C,C66*%
X278740000Y-165375000D03*
X279700000Y-165375000D03*
%TD*%
D28*
%TO.C,C67*%
X270600000Y-90725000D03*
X269050000Y-90725000D03*
%TD*%
D31*
%TO.C,C68*%
X255813999Y-80850000D03*
X257363999Y-80850000D03*
%TD*%
D30*
%TO.C,C69*%
X278770000Y-180225000D03*
X279730000Y-180225000D03*
%TD*%
D22*
%TO.C,C70*%
X272325000Y-87270000D03*
X272325000Y-88230000D03*
%TD*%
D29*
%TO.C,C71*%
X254088999Y-84385000D03*
X254088999Y-83425000D03*
%TD*%
D28*
%TO.C,C74*%
X271850000Y-84850000D03*
X270300000Y-84850000D03*
%TD*%
D31*
%TO.C,C75*%
X254513999Y-86800000D03*
X256063999Y-86800000D03*
%TD*%
D28*
%TO.C,C76*%
X271850000Y-83350000D03*
X270300000Y-83350000D03*
%TD*%
D31*
%TO.C,C77*%
X254513999Y-88275000D03*
X256063999Y-88275000D03*
%TD*%
D30*
%TO.C,C78*%
X270590000Y-82100000D03*
X271550000Y-82100000D03*
%TD*%
D24*
%TO.C,C79*%
X255813999Y-89525000D03*
X254853999Y-89525000D03*
%TD*%
D28*
%TO.C,C80*%
X271850000Y-80850000D03*
X270300000Y-80850000D03*
%TD*%
D31*
%TO.C,C81*%
X254538999Y-90775000D03*
X256088999Y-90775000D03*
%TD*%
D28*
%TO.C,C82*%
X271850000Y-79350000D03*
X270300000Y-79350000D03*
%TD*%
D31*
%TO.C,C83*%
X254538999Y-92250000D03*
X256088999Y-92250000D03*
%TD*%
D29*
%TO.C,C84*%
X279450000Y-102180000D03*
X279450000Y-101220000D03*
%TD*%
D28*
%TO.C,C86*%
X253485000Y-186135000D03*
X251935000Y-186135000D03*
%TD*%
%TO.C,C87*%
X268040000Y-186010000D03*
X266490000Y-186010000D03*
%TD*%
D31*
%TO.C,C88*%
X226965000Y-179660000D03*
X228515000Y-179660000D03*
%TD*%
%TO.C,C89*%
X208865000Y-179660000D03*
X210415000Y-179660000D03*
%TD*%
D24*
%TO.C,C116*%
X125325000Y-153100000D03*
X124365000Y-153100000D03*
%TD*%
%TO.C,C120*%
X125325000Y-152075000D03*
X124365000Y-152075000D03*
%TD*%
D32*
%TO.C,D1*%
X218805000Y-69575000D03*
X219775000Y-69575000D03*
%TD*%
D33*
%TO.C,D2*%
X224450000Y-75865000D03*
X224450000Y-76835000D03*
%TD*%
D34*
%TO.C,D3*%
X221135000Y-70550000D03*
X220165000Y-70550000D03*
%TD*%
%TO.C,D5*%
X245608999Y-75075000D03*
X244638999Y-75075000D03*
%TD*%
D32*
%TO.C,D6*%
X246563999Y-75075000D03*
X247533999Y-75075000D03*
%TD*%
D34*
%TO.C,D7*%
X263545000Y-75157500D03*
X262575000Y-75157500D03*
%TD*%
D32*
%TO.C,D8*%
X264475000Y-75157500D03*
X265445000Y-75157500D03*
%TD*%
D33*
%TO.C,D10*%
X153825000Y-64700000D03*
X153825000Y-65670000D03*
%TD*%
%TO.C,D11*%
X155825000Y-64700000D03*
X155825000Y-65670000D03*
%TD*%
D32*
%TO.C,D12*%
X150455000Y-64200000D03*
X151425000Y-64200000D03*
%TD*%
D34*
%TO.C,D13*%
X160760000Y-70750000D03*
X159790000Y-70750000D03*
%TD*%
%TO.C,D14*%
X160760000Y-71775000D03*
X159790000Y-71775000D03*
%TD*%
%TO.C,D21*%
X279705000Y-164375000D03*
X278735000Y-164375000D03*
%TD*%
%TO.C,D25*%
X279710000Y-179225000D03*
X278740000Y-179225000D03*
%TD*%
D35*
%TO.C,F1*%
X223400000Y-69125000D03*
X225050000Y-69125000D03*
%TD*%
D36*
%TO.C,F4*%
X272250000Y-71100000D03*
X272250000Y-72925000D03*
%TD*%
D37*
%TO.C,F5*%
X254288999Y-71025000D03*
X254288999Y-72900000D03*
%TD*%
D38*
%TO.C,F78*%
X251622500Y-187935000D03*
X253497500Y-187935000D03*
%TD*%
%TO.C,F79*%
X266177500Y-187835000D03*
X268052500Y-187835000D03*
%TD*%
D39*
%TO.C,F80*%
X228640000Y-181435000D03*
X226765000Y-181435000D03*
%TD*%
%TO.C,F81*%
X210590000Y-181410000D03*
X208715000Y-181410000D03*
%TD*%
D40*
%TO.C,FID1*%
X68050000Y-139000000D03*
%TD*%
%TO.C,FID2*%
X68050000Y-141550000D03*
%TD*%
D10*
%TO.C,H1*%
X178625000Y-141850000D03*
X177922056Y-143547056D03*
X177922056Y-140152944D03*
X176225000Y-144250000D03*
D11*
X176225000Y-141850000D03*
D10*
X176225000Y-139450000D03*
X174527944Y-143547056D03*
X174527944Y-140152944D03*
X173825000Y-141850000D03*
%TD*%
%TO.C,H2*%
X149550000Y-142175000D03*
X148847056Y-143872056D03*
X148847056Y-140477944D03*
X147150000Y-144575000D03*
D11*
X147150000Y-142175000D03*
D10*
X147150000Y-139775000D03*
X145452944Y-143872056D03*
X145452944Y-140477944D03*
X144750000Y-142175000D03*
%TD*%
%TO.C,H3*%
X149550000Y-191908582D03*
X148847056Y-193605638D03*
X148847056Y-190211526D03*
X147150000Y-194308582D03*
D11*
X147150000Y-191908582D03*
D10*
X147150000Y-189508582D03*
X145452944Y-193605638D03*
X145452944Y-190211526D03*
X144750000Y-191908582D03*
%TD*%
%TO.C,H4*%
X178625000Y-191850000D03*
X177922056Y-193547056D03*
X177922056Y-190152944D03*
X176225000Y-194250000D03*
D11*
X176225000Y-191850000D03*
D10*
X176225000Y-189450000D03*
X174527944Y-193547056D03*
X174527944Y-190152944D03*
X173825000Y-191850000D03*
%TD*%
D41*
%TO.C,J1*%
X281600000Y-136605000D03*
X281600000Y-134065000D03*
D16*
X281600000Y-131525000D03*
%TD*%
D42*
%TO.C,J3*%
X224250000Y-59785000D03*
X209750000Y-59785000D03*
D43*
X224250000Y-65745000D03*
X209750000Y-65745000D03*
D44*
X221500000Y-66505000D03*
X221000000Y-66505000D03*
X220500000Y-66505000D03*
X220000000Y-66505000D03*
X219500000Y-66505000D03*
X219000000Y-66505000D03*
X218500000Y-66505000D03*
X218000000Y-66505000D03*
X217500000Y-66505000D03*
X217000000Y-66505000D03*
X216500000Y-66505000D03*
X216000000Y-66505000D03*
X215500000Y-66505000D03*
X215000000Y-66505000D03*
X214500000Y-66505000D03*
X214000000Y-66505000D03*
X213500000Y-66505000D03*
X213000000Y-66505000D03*
X212500000Y-66505000D03*
%TD*%
D45*
%TO.C,J6*%
X181225000Y-68550000D03*
X196775000Y-68550000D03*
D46*
X183285000Y-71850000D03*
X184555000Y-74390000D03*
X185825000Y-71850000D03*
X187095000Y-74390000D03*
X188365000Y-71850000D03*
X189635000Y-74390000D03*
X190905000Y-71850000D03*
X192175000Y-74390000D03*
X193445000Y-71850000D03*
D47*
X194715000Y-74390000D03*
D46*
X195325000Y-60600000D03*
X192785000Y-62120000D03*
X185215000Y-60600000D03*
X182675000Y-62120000D03*
D48*
X183285000Y-65500000D03*
X194715000Y-65500000D03*
%TD*%
D41*
%TO.C,J7*%
X191375000Y-190600609D03*
X191375000Y-188060609D03*
X191375000Y-185520609D03*
D16*
X191375000Y-182980609D03*
%TD*%
D41*
%TO.C,J8*%
X200900000Y-185510000D03*
X200900000Y-188050000D03*
D16*
X200900000Y-190590000D03*
%TD*%
D41*
%TO.C,J9*%
X195125000Y-190600000D03*
X195125000Y-188060000D03*
X195125000Y-185520000D03*
D16*
X195125000Y-182980000D03*
%TD*%
D41*
%TO.C,J10*%
X204550000Y-185510000D03*
X204550000Y-188050000D03*
D16*
X204550000Y-190590000D03*
%TD*%
D41*
%TO.C,J11*%
X128550000Y-95930000D03*
X128550000Y-93390000D03*
D16*
X128550000Y-90850000D03*
%TD*%
D41*
%TO.C,J12*%
X128525000Y-84540000D03*
X128525000Y-82000000D03*
X128525000Y-79460000D03*
D16*
X128525000Y-76920000D03*
%TD*%
D41*
%TO.C,J13*%
X124800000Y-84540000D03*
X124800000Y-82000000D03*
X124800000Y-79460000D03*
D16*
X124800000Y-76920000D03*
%TD*%
D41*
%TO.C,J14*%
X124825000Y-95930000D03*
X124825000Y-93390000D03*
D16*
X124825000Y-90850000D03*
%TD*%
D49*
%TO.C,J15*%
X157500000Y-109375000D03*
X136800000Y-109375000D03*
D50*
X156400000Y-108600000D03*
X156150000Y-116150000D03*
X155900000Y-108600000D03*
X155650000Y-116150000D03*
X155400000Y-108600000D03*
X155150000Y-116150000D03*
X154900000Y-108600000D03*
X154650000Y-116150000D03*
X154400000Y-108600000D03*
X152150000Y-116150000D03*
X151900000Y-108600000D03*
X151650000Y-116150000D03*
X151400000Y-108600000D03*
X151150000Y-116150000D03*
X150900000Y-108600000D03*
X150650000Y-116150000D03*
X150400000Y-108600000D03*
X150150000Y-116150000D03*
X149900000Y-108600000D03*
X149650000Y-116150000D03*
X149400000Y-108600000D03*
X149150000Y-116150000D03*
X148900000Y-108600000D03*
X148650000Y-116150000D03*
X148400000Y-108600000D03*
X148150000Y-116150000D03*
X147900000Y-108600000D03*
X147650000Y-116150000D03*
X147400000Y-108600000D03*
X147150000Y-116150000D03*
X146900000Y-108600000D03*
X146650000Y-116150000D03*
X146400000Y-108600000D03*
X146150000Y-116150000D03*
X145900000Y-108600000D03*
X145650000Y-116150000D03*
X145400000Y-108600000D03*
X145150000Y-116150000D03*
X144900000Y-108600000D03*
X144650000Y-116150000D03*
X144400000Y-108600000D03*
X144150000Y-116150000D03*
X143900000Y-108600000D03*
X143650000Y-116150000D03*
X143400000Y-108600000D03*
X143150000Y-116150000D03*
X142900000Y-108600000D03*
X142650000Y-116150000D03*
X142400000Y-108600000D03*
X142150000Y-116150000D03*
X141900000Y-108600000D03*
X141650000Y-116150000D03*
X141400000Y-108600000D03*
X141150000Y-116150000D03*
X140900000Y-108600000D03*
X140650000Y-116150000D03*
X140400000Y-108600000D03*
X140150000Y-116150000D03*
X139900000Y-108600000D03*
X139650000Y-116150000D03*
X139400000Y-108600000D03*
X139150000Y-116150000D03*
X138900000Y-108600000D03*
X138650000Y-116150000D03*
X138400000Y-108600000D03*
X138150000Y-116150000D03*
X137900000Y-108600000D03*
D51*
X157150000Y-113875000D03*
D52*
X137150000Y-113875000D03*
%TD*%
D49*
%TO.C,J16*%
X186575000Y-109100000D03*
X165875000Y-109100000D03*
D50*
X185475000Y-108325000D03*
X185225000Y-115875000D03*
X184975000Y-108325000D03*
X184725000Y-115875000D03*
X184475000Y-108325000D03*
X184225000Y-115875000D03*
X183975000Y-108325000D03*
X183725000Y-115875000D03*
X183475000Y-108325000D03*
X183225000Y-115875000D03*
X182975000Y-108325000D03*
X182725000Y-115875000D03*
X182475000Y-108325000D03*
X182225000Y-115875000D03*
X181975000Y-108325000D03*
X181725000Y-115875000D03*
X181475000Y-108325000D03*
X181225000Y-115875000D03*
X180975000Y-108325000D03*
X180725000Y-115875000D03*
X180475000Y-108325000D03*
X180225000Y-115875000D03*
X179975000Y-108325000D03*
X179725000Y-115875000D03*
X179475000Y-108325000D03*
X179225000Y-115875000D03*
X178975000Y-108325000D03*
X178725000Y-115875000D03*
X178475000Y-108325000D03*
X178225000Y-115875000D03*
X177975000Y-108325000D03*
X177725000Y-115875000D03*
X177475000Y-108325000D03*
X177225000Y-115875000D03*
X176975000Y-108325000D03*
X176725000Y-115875000D03*
X176475000Y-108325000D03*
X176225000Y-115875000D03*
X175975000Y-108325000D03*
X175725000Y-115875000D03*
X175475000Y-108325000D03*
X175225000Y-115875000D03*
X174975000Y-108325000D03*
X174725000Y-115875000D03*
X172475000Y-108325000D03*
X172225000Y-115875000D03*
X171975000Y-108325000D03*
X171725000Y-115875000D03*
X171475000Y-108325000D03*
X171225000Y-115875000D03*
X170975000Y-108325000D03*
X170725000Y-115875000D03*
X170475000Y-108325000D03*
X170225000Y-115875000D03*
X169975000Y-108325000D03*
X169725000Y-115875000D03*
X169475000Y-108325000D03*
X169225000Y-115875000D03*
X168975000Y-108325000D03*
X168725000Y-115875000D03*
X168475000Y-108325000D03*
X168225000Y-115875000D03*
X167975000Y-108325000D03*
X167725000Y-115875000D03*
X167475000Y-108325000D03*
X167225000Y-115875000D03*
X166975000Y-108325000D03*
D53*
X186225000Y-113600000D03*
D54*
X166225000Y-113600000D03*
%TD*%
D55*
%TO.C,J17*%
X146750000Y-64350000D03*
X146750000Y-59750000D03*
X137250000Y-64450000D03*
X137250000Y-59750000D03*
D56*
X142000000Y-60250000D03*
D57*
X142000000Y-66250000D03*
D53*
X142000000Y-57000000D03*
%TD*%
D58*
%TO.C,J18*%
X150580000Y-57475000D03*
D59*
X150580000Y-61675000D03*
D58*
X159220000Y-57475000D03*
D59*
X159220000Y-61675000D03*
D60*
X158100000Y-62275000D03*
X157300000Y-62275000D03*
D61*
X156650000Y-62275000D03*
X155650000Y-62275000D03*
X154150000Y-62275000D03*
X153150000Y-62275000D03*
D60*
X152500000Y-62275000D03*
X151700000Y-62275000D03*
X151700000Y-62275000D03*
X152500000Y-62275000D03*
D61*
X153650000Y-62275000D03*
X154650000Y-62275000D03*
X155150000Y-62275000D03*
X156150000Y-62275000D03*
D60*
X157300000Y-62275000D03*
X158100000Y-62275000D03*
D62*
X152010000Y-61155000D03*
X157790000Y-61155000D03*
%TD*%
D63*
%TO.C,J78*%
X239288999Y-66400000D03*
X252888999Y-66400000D03*
D64*
X251088999Y-71845000D03*
X248588999Y-71845000D03*
X246088999Y-71845000D03*
X243588999Y-71845000D03*
X241088999Y-71845000D03*
D65*
X242338999Y-71620000D03*
X244838999Y-71620000D03*
X247338999Y-71620000D03*
X249838999Y-71620000D03*
D66*
X242688999Y-66400000D03*
X249488999Y-66400000D03*
%TD*%
D58*
%TO.C,J79*%
X267360000Y-194860000D03*
D59*
X267360000Y-190660000D03*
D58*
X258720000Y-194860000D03*
D59*
X258720000Y-190660000D03*
D60*
X259840000Y-190060000D03*
X260640000Y-190060000D03*
D61*
X261290000Y-190060000D03*
X262290000Y-190060000D03*
X263790000Y-190060000D03*
X264790000Y-190060000D03*
D60*
X265440000Y-190060000D03*
X266240000Y-190060000D03*
X266240000Y-190060000D03*
X265440000Y-190060000D03*
D61*
X264290000Y-190060000D03*
X263290000Y-190060000D03*
X262790000Y-190060000D03*
X261790000Y-190060000D03*
D60*
X260640000Y-190060000D03*
X259840000Y-190060000D03*
D62*
X265930000Y-191180000D03*
X260150000Y-191180000D03*
%TD*%
D63*
%TO.C,J80*%
X257200000Y-66407500D03*
X270800000Y-66407500D03*
D64*
X269000000Y-71852500D03*
X266500000Y-71852500D03*
X264000000Y-71852500D03*
X261500000Y-71852500D03*
X259000000Y-71852500D03*
D65*
X260250000Y-71627500D03*
X262750000Y-71627500D03*
X265250000Y-71627500D03*
X267750000Y-71627500D03*
D66*
X260600000Y-66407500D03*
X267400000Y-66407500D03*
%TD*%
D58*
%TO.C,J81*%
X252860000Y-194910000D03*
D59*
X252860000Y-190710000D03*
D58*
X244220000Y-194910000D03*
D59*
X244220000Y-190710000D03*
D60*
X245340000Y-190110000D03*
X246140000Y-190110000D03*
D61*
X246790000Y-190110000D03*
X247790000Y-190110000D03*
X249290000Y-190110000D03*
X250290000Y-190110000D03*
D60*
X250940000Y-190110000D03*
X251740000Y-190110000D03*
X251740000Y-190110000D03*
X250940000Y-190110000D03*
D61*
X249790000Y-190110000D03*
X248790000Y-190110000D03*
X248290000Y-190110000D03*
X247290000Y-190110000D03*
D60*
X246140000Y-190110000D03*
X245340000Y-190110000D03*
D62*
X251430000Y-191230000D03*
X245650000Y-191230000D03*
%TD*%
D67*
%TO.C,J82*%
X239650000Y-188200000D03*
X226850000Y-188200000D03*
D68*
X236750000Y-184500000D03*
X234250000Y-184500000D03*
X232250000Y-184500000D03*
X229750000Y-184500000D03*
%TD*%
D67*
%TO.C,J83*%
X221550000Y-188200000D03*
X208750000Y-188200000D03*
D68*
X218650000Y-184500000D03*
X216150000Y-184500000D03*
X214150000Y-184500000D03*
X211650000Y-184500000D03*
%TD*%
D69*
%TO.C,J84*%
X240685000Y-171843400D03*
X241955000Y-171843400D03*
X243225000Y-171843400D03*
X244495000Y-171843400D03*
X245765000Y-171843400D03*
X247035000Y-171843400D03*
X248305000Y-171843400D03*
%TD*%
%TO.C,J85*%
X220095000Y-171850000D03*
X221365000Y-171850000D03*
X222635000Y-171850000D03*
X223905000Y-171850000D03*
X225175000Y-171850000D03*
X226445000Y-171850000D03*
X227715000Y-171850000D03*
%TD*%
D70*
%TO.C,J86*%
X130400000Y-139300000D03*
X130400000Y-138030000D03*
X130400000Y-136760000D03*
X130400000Y-135490000D03*
X130400000Y-134220000D03*
X130400000Y-132950000D03*
X130400000Y-131680000D03*
%TD*%
%TO.C,J87*%
X130381600Y-150680000D03*
X130381600Y-151950000D03*
X130381600Y-153220000D03*
X130381600Y-154490000D03*
X130381600Y-155760000D03*
X130381600Y-157030000D03*
X130381600Y-158300000D03*
%TD*%
D41*
%TO.C,JP1*%
X283450000Y-109610000D03*
X283450000Y-112150000D03*
D16*
X283450000Y-114690000D03*
%TD*%
D71*
%TO.C,L1*%
X275050000Y-85725000D03*
X275050000Y-88725000D03*
%TD*%
%TO.C,L2*%
X251363999Y-85825000D03*
X251363999Y-82825000D03*
%TD*%
D72*
%TO.C,M1*%
X282250000Y-96050000D03*
X282250000Y-98050000D03*
X282250000Y-100050000D03*
D73*
X282250000Y-102050000D03*
%TD*%
D74*
%TO.C,Q1*%
X225950000Y-80075000D03*
X226900000Y-81950000D03*
X225000000Y-81950000D03*
%TD*%
%TO.C,Q2*%
X222375000Y-80062500D03*
X223325000Y-81937500D03*
X221425000Y-81937500D03*
%TD*%
%TO.C,Q3*%
X222600000Y-72375000D03*
X223550000Y-74250000D03*
X221650000Y-74250000D03*
%TD*%
%TO.C,Q4*%
X229500000Y-80075000D03*
X230450000Y-81950000D03*
X228550000Y-81950000D03*
%TD*%
D75*
%TO.C,Q8*%
X275085000Y-110900000D03*
X276960000Y-109950000D03*
X276960000Y-111850000D03*
%TD*%
D19*
%TO.C,R1*%
X172100000Y-98475000D03*
X173120000Y-98475000D03*
%TD*%
%TO.C,R2*%
X239465000Y-81275000D03*
X240485000Y-81275000D03*
%TD*%
%TO.C,R3*%
X224990000Y-73350000D03*
X226010000Y-73350000D03*
%TD*%
D76*
%TO.C,R4*%
X227400000Y-77310000D03*
X227400000Y-76290000D03*
%TD*%
%TO.C,R5*%
X223325000Y-78570000D03*
X223325000Y-77550000D03*
%TD*%
D15*
%TO.C,R6*%
X226450000Y-75840000D03*
X226450000Y-76860000D03*
%TD*%
D76*
%TO.C,R7*%
X219750000Y-74985000D03*
X219750000Y-73965000D03*
%TD*%
%TO.C,R8*%
X218275000Y-74985000D03*
X218275000Y-73965000D03*
%TD*%
%TO.C,R9*%
X217275000Y-74990000D03*
X217275000Y-73970000D03*
%TD*%
%TO.C,R10*%
X215750000Y-74985000D03*
X215750000Y-73965000D03*
%TD*%
D15*
%TO.C,R11*%
X225450000Y-75840000D03*
X225450000Y-76860000D03*
%TD*%
D76*
%TO.C,R13*%
X214750000Y-74985000D03*
X214750000Y-73965000D03*
%TD*%
%TO.C,R14*%
X213225000Y-74985000D03*
X213225000Y-73965000D03*
%TD*%
%TO.C,R15*%
X222375000Y-76860000D03*
X222375000Y-75840000D03*
%TD*%
%TO.C,R16*%
X212225000Y-74985000D03*
X212225000Y-73965000D03*
%TD*%
%TO.C,R17*%
X210725000Y-74975000D03*
X210725000Y-73955000D03*
%TD*%
D19*
%TO.C,R18*%
X222080000Y-70775000D03*
X223100000Y-70775000D03*
%TD*%
D15*
%TO.C,R19*%
X228175000Y-83665000D03*
X228175000Y-84685000D03*
%TD*%
%TO.C,R20*%
X186191150Y-94240000D03*
X186191150Y-95260000D03*
%TD*%
%TO.C,R21*%
X187166150Y-94240000D03*
X187166150Y-95260000D03*
%TD*%
D35*
%TO.C,R22*%
X193216150Y-85425000D03*
X194866150Y-85425000D03*
%TD*%
D76*
%TO.C,R23*%
X191942669Y-90085793D03*
X191942669Y-89065793D03*
%TD*%
%TO.C,R24*%
X194025000Y-79730000D03*
X194025000Y-78710000D03*
%TD*%
%TO.C,R25*%
X183725000Y-79695000D03*
X183725000Y-78675000D03*
%TD*%
D19*
%TO.C,R27*%
X149630000Y-118500000D03*
X150650000Y-118500000D03*
%TD*%
D76*
%TO.C,R29*%
X157625000Y-119595000D03*
X157625000Y-118575000D03*
%TD*%
%TO.C,R30*%
X134125000Y-115645000D03*
X134125000Y-114625000D03*
%TD*%
D18*
%TO.C,R32*%
X181035000Y-105949000D03*
X180015000Y-105949000D03*
%TD*%
D76*
%TO.C,R33*%
X179225000Y-119450000D03*
X179225000Y-118430000D03*
%TD*%
%TO.C,R34*%
X181200000Y-119445000D03*
X181200000Y-118425000D03*
%TD*%
D15*
%TO.C,R35*%
X180225000Y-118425000D03*
X180225000Y-119445000D03*
%TD*%
D76*
%TO.C,R36*%
X159747387Y-66861000D03*
X159747387Y-65841000D03*
%TD*%
D18*
%TO.C,R37*%
X157885000Y-64950000D03*
X156865000Y-64950000D03*
%TD*%
D15*
%TO.C,R43*%
X160825000Y-65850000D03*
X160825000Y-66870000D03*
%TD*%
D19*
%TO.C,R46*%
X278465000Y-112150000D03*
X279485000Y-112150000D03*
%TD*%
%TO.C,R47*%
X278465000Y-113150000D03*
X279485000Y-113150000D03*
%TD*%
%TO.C,R48*%
X278705000Y-163350000D03*
X279725000Y-163350000D03*
%TD*%
D18*
%TO.C,R49*%
X277535000Y-113150000D03*
X276515000Y-113150000D03*
%TD*%
D19*
%TO.C,R51*%
X278470000Y-111150000D03*
X279490000Y-111150000D03*
%TD*%
%TO.C,R52*%
X279350000Y-108525000D03*
X280370000Y-108525000D03*
%TD*%
%TO.C,R53*%
X239465000Y-82325000D03*
X240485000Y-82325000D03*
%TD*%
%TO.C,R55*%
X278715000Y-178225000D03*
X279735000Y-178225000D03*
%TD*%
D15*
%TO.C,R57*%
X268100000Y-84155000D03*
X268100000Y-85175000D03*
%TD*%
D76*
%TO.C,R58*%
X269075000Y-85175000D03*
X269075000Y-84155000D03*
%TD*%
%TO.C,R59*%
X258288999Y-87445000D03*
X258288999Y-86425000D03*
%TD*%
D15*
%TO.C,R60*%
X257288999Y-86425000D03*
X257288999Y-87445000D03*
%TD*%
%TO.C,R68*%
X276375000Y-97015000D03*
X276375000Y-98035000D03*
%TD*%
D18*
%TO.C,R69*%
X279175000Y-96050000D03*
X278155000Y-96050000D03*
%TD*%
D15*
%TO.C,R72*%
X279450000Y-99150000D03*
X279450000Y-100170000D03*
%TD*%
%TO.C,R76*%
X219225000Y-94830000D03*
X219225000Y-95850000D03*
%TD*%
%TO.C,R77*%
X220225000Y-94830000D03*
X220225000Y-95850000D03*
%TD*%
D76*
%TO.C,R80*%
X247310000Y-188420000D03*
X247310000Y-187400000D03*
%TD*%
%TO.C,R81*%
X250310000Y-188420000D03*
X250310000Y-187400000D03*
%TD*%
%TO.C,R82*%
X261790000Y-188410000D03*
X261790000Y-187390000D03*
%TD*%
%TO.C,R83*%
X264790000Y-188410000D03*
X264790000Y-187390000D03*
%TD*%
D12*
%TO.C,U1*%
X212750000Y-69675000D03*
X213250000Y-69675000D03*
D14*
X213750000Y-69650000D03*
D12*
X214250000Y-69675000D03*
X214750000Y-69675000D03*
X214750000Y-70450000D03*
X214250000Y-70450000D03*
D13*
X213750000Y-70412500D03*
D12*
X213250000Y-70450000D03*
X212750000Y-70450000D03*
%TD*%
%TO.C,U2*%
X215750000Y-69675000D03*
X216250000Y-69675000D03*
D14*
X216750000Y-69650000D03*
D12*
X217250000Y-69675000D03*
X217750000Y-69675000D03*
X217750000Y-70450000D03*
X217250000Y-70450000D03*
D13*
X216750000Y-70412500D03*
D12*
X216250000Y-70450000D03*
X215750000Y-70450000D03*
%TD*%
%TO.C,U3*%
X265000000Y-78845000D03*
X264500000Y-78845000D03*
D14*
X264000000Y-78870000D03*
D12*
X263500000Y-78845000D03*
X263000000Y-78845000D03*
X263000000Y-78070000D03*
X263500000Y-78070000D03*
D13*
X264000000Y-78107500D03*
D12*
X264500000Y-78070000D03*
X265000000Y-78070000D03*
%TD*%
%TO.C,U4*%
X254790000Y-182472500D03*
X255290000Y-182472500D03*
D14*
X255790000Y-182447500D03*
D12*
X256290000Y-182472500D03*
X256790000Y-182472500D03*
X256790000Y-183247500D03*
X256290000Y-183247500D03*
D13*
X255790000Y-183210000D03*
D12*
X255290000Y-183247500D03*
X254790000Y-183247500D03*
%TD*%
%TO.C,U5*%
X247038999Y-78900000D03*
X246538999Y-78900000D03*
D14*
X246038999Y-78925000D03*
D12*
X245538999Y-78900000D03*
X245038999Y-78900000D03*
X245038999Y-78125000D03*
X245538999Y-78125000D03*
D13*
X246038999Y-78162500D03*
D12*
X246538999Y-78125000D03*
X247038999Y-78125000D03*
%TD*%
D77*
%TO.C,U6*%
X187966150Y-89450000D03*
D78*
X189916150Y-88050000D03*
D79*
X189916150Y-88450000D03*
X189916150Y-88850000D03*
X189916150Y-89250000D03*
X189916150Y-89650000D03*
X189916150Y-90050000D03*
X189916150Y-90450000D03*
D80*
X189916150Y-90850000D03*
D81*
X189366150Y-91400000D03*
D82*
X188966150Y-91400000D03*
X188566150Y-91400000D03*
X188166150Y-91400000D03*
X187766150Y-91400000D03*
X187366150Y-91400000D03*
X186966150Y-91400000D03*
D83*
X186566150Y-91400000D03*
D84*
X186016150Y-90850000D03*
D79*
X186016150Y-90450000D03*
X186016150Y-90050000D03*
X186016150Y-89650000D03*
X186016150Y-89250000D03*
X186016150Y-88850000D03*
X186016150Y-88450000D03*
D85*
X186016150Y-88050000D03*
D86*
X186566150Y-87500000D03*
D82*
X186966150Y-87500000D03*
X187366150Y-87500000D03*
X187766150Y-87500000D03*
X188166150Y-87500000D03*
X188566150Y-87500000D03*
X188966150Y-87500000D03*
D87*
X189366150Y-87500000D03*
%TD*%
D12*
%TO.C,U10*%
X202925000Y-179965000D03*
X203425000Y-179965000D03*
D14*
X203925000Y-179940000D03*
D12*
X204425000Y-179965000D03*
X204925000Y-179965000D03*
X204925000Y-180740000D03*
X204425000Y-180740000D03*
D13*
X203925000Y-180702500D03*
D12*
X203425000Y-180740000D03*
X202925000Y-180740000D03*
%TD*%
D88*
%TO.C,U14*%
X158319774Y-72426000D03*
X157319774Y-72426000D03*
X156319774Y-72426000D03*
X155319774Y-72426000D03*
X154319774Y-72426000D03*
X154319774Y-67326000D03*
X155319774Y-67326000D03*
X156319774Y-67326000D03*
X157319774Y-67326000D03*
X158319774Y-67326000D03*
D89*
X156319774Y-69876000D03*
%TD*%
D90*
%TO.C,U15*%
X271025000Y-88862500D03*
X270075000Y-88862500D03*
X269125000Y-88862500D03*
X269125000Y-86587500D03*
X270075000Y-86587500D03*
X271025000Y-86587500D03*
%TD*%
D91*
%TO.C,U16*%
X255363999Y-82800000D03*
X256313999Y-82800000D03*
X257263999Y-82800000D03*
X257263999Y-85075000D03*
X256313999Y-85075000D03*
X255363999Y-85075000D03*
%TD*%
D92*
%TO.C,Y1*%
X193392669Y-90450793D03*
X193392669Y-88250793D03*
X195092669Y-88250793D03*
X195092669Y-90450793D03*
%TD*%
D24*
%TO.C,C113*%
X125000000Y-137905000D03*
X124040000Y-137905000D03*
%TD*%
%TO.C,C117*%
X125005000Y-136905000D03*
X124045000Y-136905000D03*
%TD*%
%TO.C,C119*%
X124335000Y-155900000D03*
X125295000Y-155900000D03*
%TD*%
%TO.C,C115*%
X124340000Y-156900000D03*
X125300000Y-156900000D03*
%TD*%
D93*
%TO.C,H72*%
X122575000Y-191375000D03*
X123453680Y-189253680D03*
X123453680Y-193496320D03*
X125575000Y-188375000D03*
D94*
X125575000Y-191375000D03*
D93*
X125575000Y-194375000D03*
X127696320Y-189253680D03*
X127696320Y-193496320D03*
X128575000Y-191375000D03*
%TD*%
D95*
%TO.C,D24*%
X239450000Y-83825000D03*
X241550000Y-83825000D03*
%TD*%
D12*
%TO.C,U8*%
X188275000Y-79600000D03*
X188775000Y-79600000D03*
D96*
X189275000Y-79562500D03*
D12*
X189775000Y-79600000D03*
X190275000Y-79600000D03*
X190275000Y-78825000D03*
X189775000Y-78825000D03*
D97*
X189275000Y-78800000D03*
D12*
X188775000Y-78825000D03*
X188275000Y-78825000D03*
%TD*%
D98*
%TO.C,TP3*%
X138125000Y-69350000D03*
%TD*%
D99*
%TO.C,D15*%
X146250000Y-71775000D03*
X142250000Y-71775000D03*
%TD*%
D29*
%TO.C,C95*%
X200100000Y-146845000D03*
X200100000Y-147805000D03*
%TD*%
D76*
%TO.C,R66*%
X275275000Y-97015000D03*
X275275000Y-98035000D03*
%TD*%
D100*
%TO.C,D19*%
X151800000Y-81000000D03*
X155800000Y-81000000D03*
%TD*%
D98*
%TO.C,TP2*%
X147150000Y-119425000D03*
%TD*%
D19*
%TO.C,R50*%
X279725000Y-162350000D03*
X278705000Y-162350000D03*
%TD*%
D101*
%TO.C,Y78*%
X196075000Y-143400000D03*
X196075000Y-141200000D03*
X194375000Y-141200000D03*
X194375000Y-143400000D03*
%TD*%
D29*
%TO.C,C107*%
X222485000Y-176830000D03*
X222485000Y-177790000D03*
%TD*%
D98*
%TO.C,TP79*%
X216750000Y-147300000D03*
%TD*%
D100*
%TO.C,D20*%
X151775000Y-85450000D03*
X155775000Y-85450000D03*
%TD*%
D22*
%TO.C,C104*%
X243100000Y-177880000D03*
X243100000Y-176920000D03*
%TD*%
%TO.C,C103*%
X245900000Y-177855000D03*
X245900000Y-176895000D03*
%TD*%
D98*
%TO.C,TP4*%
X159750000Y-80250000D03*
%TD*%
%TO.C,TP78*%
X216750000Y-149925000D03*
%TD*%
D102*
%TO.C,D9*%
X134125000Y-111612500D03*
X134125000Y-113187500D03*
%TD*%
D18*
%TO.C,R86*%
X201465000Y-148050000D03*
X202485000Y-148050000D03*
%TD*%
D98*
%TO.C,TP6*%
X251038999Y-88350000D03*
%TD*%
D15*
%TO.C,R78*%
X192450000Y-111160000D03*
X192450000Y-110140000D03*
%TD*%
D99*
%TO.C,D17*%
X146225000Y-80975000D03*
X142225000Y-80975000D03*
%TD*%
D15*
%TO.C,R85*%
X207700000Y-149260000D03*
X207700000Y-148240000D03*
%TD*%
D93*
%TO.C,H73*%
X280628680Y-191375000D03*
X281507360Y-189253680D03*
X281507360Y-193496320D03*
X283628680Y-188375000D03*
D94*
X283628680Y-191375000D03*
D93*
X283628680Y-194375000D03*
X285750000Y-189253680D03*
X285750000Y-193496320D03*
X286628680Y-191375000D03*
%TD*%
D98*
%TO.C,TP11*%
X275125000Y-101950000D03*
%TD*%
D24*
%TO.C,C92*%
X210925000Y-140425000D03*
X211885000Y-140425000D03*
%TD*%
D29*
%TO.C,C109*%
X221510000Y-176825000D03*
X221510000Y-177785000D03*
%TD*%
D103*
%TO.C,SW1*%
X281525000Y-165850000D03*
X281525000Y-157850000D03*
X286025000Y-165850000D03*
X286025000Y-157850000D03*
%TD*%
D29*
%TO.C,C108*%
X225310000Y-176825000D03*
X225310000Y-177785000D03*
%TD*%
D22*
%TO.C,C73*%
X259288999Y-87410000D03*
X259288999Y-86450000D03*
%TD*%
D103*
%TO.C,SW2*%
X281525000Y-178800000D03*
X281525000Y-170800000D03*
X286025000Y-178800000D03*
X286025000Y-170800000D03*
%TD*%
D95*
%TO.C,D4*%
X225050000Y-71825000D03*
X227150000Y-71825000D03*
%TD*%
D98*
%TO.C,TP5*%
X208025000Y-74300000D03*
%TD*%
D22*
%TO.C,C90*%
X200000000Y-140530000D03*
X200000000Y-139570000D03*
%TD*%
D104*
%TO.C,H6*%
X266025000Y-158850000D03*
D105*
X266025000Y-158850000D03*
%TD*%
D98*
%TO.C,TP12*%
X277075000Y-93150000D03*
%TD*%
D12*
%TO.C,U7*%
X185237500Y-79600000D03*
X185737500Y-79600000D03*
D96*
X186237500Y-79562500D03*
D12*
X186737500Y-79600000D03*
X187237500Y-79600000D03*
X187237500Y-78825000D03*
X186737500Y-78825000D03*
D97*
X186237500Y-78800000D03*
D12*
X185737500Y-78825000D03*
X185237500Y-78825000D03*
%TD*%
D24*
%TO.C,C101*%
X210920000Y-139400000D03*
X211880000Y-139400000D03*
%TD*%
%TO.C,C100*%
X211595000Y-143050000D03*
X212555000Y-143050000D03*
%TD*%
D22*
%TO.C,C112*%
X197675000Y-142780000D03*
X197675000Y-141820000D03*
%TD*%
%TO.C,C105*%
X242100000Y-177880000D03*
X242100000Y-176920000D03*
%TD*%
D104*
%TO.C,H5*%
X203825000Y-158625000D03*
D105*
X203825000Y-158625000D03*
%TD*%
D29*
%TO.C,C72*%
X267100000Y-84190000D03*
X267100000Y-85150000D03*
%TD*%
D19*
%TO.C,R56*%
X279760000Y-177225000D03*
X278740000Y-177225000D03*
%TD*%
D99*
%TO.C,D16*%
X146250000Y-76500000D03*
X142250000Y-76500000D03*
%TD*%
D15*
%TO.C,R79*%
X193575000Y-111160000D03*
X193575000Y-110140000D03*
%TD*%
D29*
%TO.C,C96*%
X205005000Y-148845000D03*
X205005000Y-149805000D03*
%TD*%
%TO.C,C106*%
X226285000Y-176825000D03*
X226285000Y-177785000D03*
%TD*%
D22*
%TO.C,C99*%
X205200000Y-138150000D03*
X205200000Y-137190000D03*
%TD*%
D106*
%TO.C,C110*%
X212025000Y-151000000D03*
X213925000Y-151000000D03*
%TD*%
D29*
%TO.C,C93*%
X205975000Y-148845000D03*
X205975000Y-149805000D03*
%TD*%
D15*
%TO.C,R84*%
X206225000Y-136735000D03*
X206225000Y-135715000D03*
%TD*%
D22*
%TO.C,C102*%
X246900000Y-177855000D03*
X246900000Y-176895000D03*
%TD*%
D107*
%TO.C,D22*%
X278785000Y-109825000D03*
X280360000Y-109825000D03*
%TD*%
D108*
%TO.C,D26*%
X277900000Y-100150000D03*
X277900000Y-98050000D03*
%TD*%
D98*
%TO.C,TP80*%
X216700000Y-144500000D03*
%TD*%
D24*
%TO.C,C91*%
X211590000Y-144800000D03*
X212550000Y-144800000D03*
%TD*%
D98*
%TO.C,TP10*%
X144625000Y-86750000D03*
%TD*%
D100*
%TO.C,D18*%
X151800000Y-76500000D03*
X155800000Y-76500000D03*
%TD*%
D93*
%TO.C,H74*%
X280628680Y-61096320D03*
X281507360Y-58975000D03*
X281507360Y-63217640D03*
X283628680Y-58096320D03*
D94*
X283628680Y-61096320D03*
D93*
X283628680Y-64096320D03*
X285750000Y-58975000D03*
X285750000Y-63217640D03*
X286628680Y-61096320D03*
%TD*%
D29*
%TO.C,C111*%
X209975000Y-150195000D03*
X209975000Y-151155000D03*
%TD*%
D109*
%TO.C,U78*%
X208950000Y-146050000D03*
X208950000Y-145550000D03*
X208950000Y-145050000D03*
X208950000Y-144550000D03*
X208950000Y-144050000D03*
X208950000Y-143550000D03*
X208950000Y-143050000D03*
X208950000Y-142550000D03*
X208950000Y-142050000D03*
X208950000Y-141550000D03*
X208950000Y-141050000D03*
X208950000Y-140550000D03*
D110*
X208200000Y-139800000D03*
X207700000Y-139800000D03*
X207200000Y-139800000D03*
X206700000Y-139800000D03*
X206200000Y-139800000D03*
X205700000Y-139800000D03*
X205200000Y-139800000D03*
X204700000Y-139800000D03*
X204200000Y-139800000D03*
X203700000Y-139800000D03*
X203200000Y-139800000D03*
X202700000Y-139800000D03*
D109*
X201950000Y-140550000D03*
X201950000Y-141050000D03*
X201950000Y-141550000D03*
X201950000Y-142050000D03*
X201950000Y-142550000D03*
X201950000Y-143050000D03*
X201950000Y-143550000D03*
X201950000Y-144050000D03*
X201950000Y-144550000D03*
X201950000Y-145050000D03*
X201950000Y-145550000D03*
X201950000Y-146050000D03*
D110*
X202700000Y-146800000D03*
X203200000Y-146800000D03*
X203700000Y-146800000D03*
X204200000Y-146800000D03*
X204700000Y-146800000D03*
X205200000Y-146800000D03*
X205700000Y-146800000D03*
X206200000Y-146800000D03*
X206700000Y-146800000D03*
X207200000Y-146800000D03*
X207700000Y-146800000D03*
X208200000Y-146800000D03*
D111*
X205450000Y-143300000D03*
%TD*%
D30*
%TO.C,C98*%
X200100000Y-143050000D03*
X199140000Y-143050000D03*
%TD*%
D98*
%TO.C,TP13*%
X237425000Y-82475000D03*
%TD*%
D29*
%TO.C,C94*%
X208725000Y-148245000D03*
X208725000Y-149205000D03*
%TD*%
D112*
%TO.C,L78*%
X212025000Y-146650000D03*
X212025000Y-148800000D03*
%TD*%
D98*
%TO.C,TP7*%
X233275000Y-82500000D03*
%TD*%
D24*
%TO.C,C97*%
X211595000Y-141450000D03*
X212555000Y-141450000D03*
%TD*%
D18*
%TO.C,R64*%
X276040000Y-95125000D03*
X277060000Y-95125000D03*
%TD*%
D12*
%TO.C,U11*%
X193750000Y-178025000D03*
X194250000Y-178025000D03*
D14*
X194750000Y-178000000D03*
D12*
X195250000Y-178025000D03*
X195750000Y-178025000D03*
X195750000Y-178800000D03*
X195250000Y-178800000D03*
D13*
X194750000Y-178762500D03*
D12*
X194250000Y-178800000D03*
X193750000Y-178800000D03*
%TD*%
%TO.C,U9*%
X190750000Y-178025000D03*
X191250000Y-178025000D03*
D14*
X191750000Y-178000000D03*
D12*
X192250000Y-178025000D03*
X192750000Y-178025000D03*
X192750000Y-178800000D03*
X192250000Y-178800000D03*
D13*
X191750000Y-178762500D03*
D12*
X191250000Y-178800000D03*
X190750000Y-178800000D03*
%TD*%
D113*
%TO.C,A1*%
X272105749Y-114451916D03*
X197105749Y-110451916D03*
D114*
X201230749Y-106551916D03*
X201480749Y-98351916D03*
X201730749Y-106551916D03*
X201980749Y-98351916D03*
X202230749Y-106551916D03*
X202480749Y-98351916D03*
X202730749Y-106551916D03*
X202980749Y-98351916D03*
X203230749Y-106551916D03*
X203480749Y-98351916D03*
X203730749Y-106551916D03*
X203980749Y-98351916D03*
X204230749Y-106551916D03*
X204480749Y-98351916D03*
X204730749Y-106551916D03*
X204980749Y-98351916D03*
X205230749Y-106551916D03*
X205480749Y-98351916D03*
X205730749Y-106551916D03*
X205980749Y-98351916D03*
X206230749Y-106551916D03*
X206480749Y-98351916D03*
X206730749Y-106551916D03*
X206980749Y-98351916D03*
X207230749Y-106551916D03*
X207480749Y-98351916D03*
X207730749Y-106551916D03*
X207980749Y-98351916D03*
X208230749Y-106551916D03*
X208480749Y-98351916D03*
X208730749Y-106551916D03*
X208980749Y-98351916D03*
X209230749Y-106551916D03*
X209480749Y-98351916D03*
X209730749Y-106551916D03*
X209980749Y-98351916D03*
X210230749Y-106551916D03*
X210480749Y-98351916D03*
X210730749Y-106551916D03*
X210980749Y-98351916D03*
X211230749Y-106551916D03*
X211480749Y-98351916D03*
X211730749Y-106551916D03*
X211980749Y-98351916D03*
X212230749Y-106551916D03*
X212480749Y-98351916D03*
X212730749Y-106551916D03*
X212980749Y-98351916D03*
X213230749Y-106551916D03*
X213480749Y-98351916D03*
X213730749Y-106551916D03*
X213980749Y-98351916D03*
X214230749Y-106551916D03*
X214480749Y-98351916D03*
X214730749Y-106551916D03*
X214980749Y-98351916D03*
X215230749Y-106551916D03*
X215480749Y-98351916D03*
X215730749Y-106551916D03*
X215980749Y-98351916D03*
X216230749Y-106551916D03*
X216480749Y-98351916D03*
X216730749Y-106551916D03*
X216980749Y-98351916D03*
X217230749Y-106551916D03*
X217480749Y-98351916D03*
X217730749Y-106551916D03*
X217980749Y-98351916D03*
X218230749Y-106551916D03*
X218480749Y-98351916D03*
X218730749Y-106551916D03*
X218980749Y-98351916D03*
X219230749Y-106551916D03*
X219480749Y-98351916D03*
X219730749Y-106551916D03*
X219980749Y-98351916D03*
X220230749Y-106551916D03*
X220480749Y-98351916D03*
X220730749Y-106551916D03*
X220980749Y-98351916D03*
X221230749Y-106551916D03*
X221480749Y-98351916D03*
X221730749Y-106551916D03*
X221980749Y-98351916D03*
X222230749Y-106551916D03*
X222480749Y-98351916D03*
X222730749Y-106551916D03*
X222980749Y-98351916D03*
X223230749Y-106551916D03*
X223480749Y-98351916D03*
X223730749Y-106551916D03*
X223980749Y-98351916D03*
X224230749Y-106551916D03*
X224480749Y-98351916D03*
X224730749Y-106551916D03*
X224980749Y-98351916D03*
X225230749Y-106551916D03*
X225480749Y-98351916D03*
X225730749Y-106551916D03*
X225980749Y-98351916D03*
X226230749Y-106551916D03*
X226480749Y-98351916D03*
X226730749Y-106551916D03*
X226980749Y-98351916D03*
X227230749Y-106551916D03*
X227480749Y-98351916D03*
X227730749Y-106551916D03*
X227980749Y-98351916D03*
X228230749Y-106551916D03*
X228480749Y-98351916D03*
X228730749Y-106551916D03*
X228980749Y-98351916D03*
X229230749Y-106551916D03*
X229480749Y-98351916D03*
X229730749Y-106551916D03*
X229980749Y-98351916D03*
X232230749Y-106551916D03*
X232480749Y-98351916D03*
X232730749Y-106551916D03*
X232980749Y-98351916D03*
X233230749Y-106551916D03*
X233480749Y-98351916D03*
X233730749Y-106551916D03*
X233980749Y-98351916D03*
X234230749Y-106551916D03*
X234480749Y-98351916D03*
X234730749Y-106551916D03*
X234980749Y-98351916D03*
X235230749Y-106551916D03*
X235480749Y-98351916D03*
X235730749Y-106551916D03*
X235980749Y-98351916D03*
X236230749Y-106551916D03*
X236480749Y-98351916D03*
X236730749Y-106551916D03*
X236980749Y-98351916D03*
X237230749Y-106551916D03*
X237480749Y-98351916D03*
X237730749Y-106551916D03*
X237980749Y-98351916D03*
X238230749Y-106551916D03*
X238480749Y-98351916D03*
X238730749Y-106551916D03*
X238980749Y-98351916D03*
X239230749Y-106551916D03*
X239480749Y-98351916D03*
X239730749Y-106551916D03*
X239980749Y-98351916D03*
X240230749Y-106551916D03*
X240480749Y-98351916D03*
X240730749Y-106551916D03*
X240980749Y-98351916D03*
X241230749Y-106551916D03*
X241480749Y-98351916D03*
X241730749Y-106551916D03*
X241980749Y-98351916D03*
X242230749Y-106551916D03*
X242480749Y-98351916D03*
X242730749Y-106551916D03*
X242980749Y-98351916D03*
X243230749Y-106551916D03*
X243480749Y-98351916D03*
X243730749Y-106551916D03*
X243980749Y-98351916D03*
X244230749Y-106551916D03*
X244480749Y-98351916D03*
X244730749Y-106551916D03*
X244980749Y-98351916D03*
X245230749Y-106551916D03*
X245480749Y-98351916D03*
X245730749Y-106551916D03*
X245980749Y-98351916D03*
X246230749Y-106551916D03*
X246480749Y-98351916D03*
X246730749Y-106551916D03*
X246980749Y-98351916D03*
X247230749Y-106551916D03*
X247480749Y-98351916D03*
X247730749Y-106551916D03*
X247980749Y-98351916D03*
X248230749Y-106551916D03*
X248480749Y-98351916D03*
X248730749Y-106551916D03*
X248980749Y-98351916D03*
X249230749Y-106551916D03*
X249480749Y-98351916D03*
X249730749Y-106551916D03*
X249980749Y-98351916D03*
X250230749Y-106551916D03*
X250480749Y-98351916D03*
X250730749Y-106551916D03*
X250980749Y-98351916D03*
X251230749Y-106551916D03*
X251480749Y-98351916D03*
X251730749Y-106551916D03*
X251980749Y-98351916D03*
X252230749Y-106551916D03*
X252480749Y-98351916D03*
X252730749Y-106551916D03*
X252980749Y-98351916D03*
X253230749Y-106551916D03*
X253480749Y-98351916D03*
X253730749Y-106551916D03*
X253980749Y-98351916D03*
X254230749Y-106551916D03*
X254480749Y-98351916D03*
X254730749Y-106551916D03*
X254980749Y-98351916D03*
X255230749Y-106551916D03*
X255480749Y-98351916D03*
X255730749Y-106551916D03*
X255980749Y-98351916D03*
X256230749Y-106551916D03*
X256480749Y-98351916D03*
X256730749Y-106551916D03*
X256980749Y-98351916D03*
X257230749Y-106551916D03*
X257480749Y-98351916D03*
X257730749Y-106551916D03*
X257980749Y-98351916D03*
X258230749Y-106551916D03*
X258480749Y-98351916D03*
X258730749Y-106551916D03*
X258980749Y-98351916D03*
X259230749Y-106551916D03*
X259480749Y-98351916D03*
X259730749Y-106551916D03*
X259980749Y-98351916D03*
X260230749Y-106551916D03*
X260480749Y-98351916D03*
X260730749Y-106551916D03*
X260980749Y-98351916D03*
X261230749Y-106551916D03*
X261480749Y-98351916D03*
X261730749Y-106551916D03*
X261980749Y-98351916D03*
X262230749Y-106551916D03*
X262480749Y-98351916D03*
X262730749Y-106551916D03*
X262980749Y-98351916D03*
X263230749Y-106551916D03*
X263480749Y-98351916D03*
X263730749Y-106551916D03*
X263980749Y-98351916D03*
X264230749Y-106551916D03*
X264480749Y-98351916D03*
X264730749Y-106551916D03*
X264980749Y-98351916D03*
X265230749Y-106551916D03*
X265480749Y-98351916D03*
X265730749Y-106551916D03*
X265980749Y-98351916D03*
X266230749Y-106551916D03*
X266480749Y-98351916D03*
X266730749Y-106551916D03*
X266980749Y-98351916D03*
X267230749Y-106551916D03*
X267480749Y-98351916D03*
X267730749Y-106551916D03*
X267980749Y-98351916D03*
D53*
X269005749Y-102451916D03*
D54*
X200205749Y-102451916D03*
%TD*%
M02*
