%TF.GenerationSoftware,KiCad,Pcbnew,9.0.3*%
%TF.CreationDate,2025-07-29T21:44:48-04:00*%
%TF.ProjectId,[DFR1142]Lite Carrier for LattePanda Mu,5b444652-3131-4343-925d-4c6974652043,rev?*%
%TF.SameCoordinates,Original*%
%TF.FileFunction,Soldermask,Bot*%
%TF.FilePolarity,Negative*%
%FSLAX46Y46*%
G04 Gerber Fmt 4.6, Leading zero omitted, Abs format (unit mm)*
G04 Created by KiCad (PCBNEW 9.0.3) date 2025-07-29 21:44:48*
%MOMM*%
%LPD*%
G01*
G04 APERTURE LIST*
G04 Aperture macros list*
%AMRoundRect*
0 Rectangle with rounded corners*
0 $1 Rounding radius*
0 $2 $3 $4 $5 $6 $7 $8 $9 X,Y pos of 4 corners*
0 Add a 4 corners polygon primitive as box body*
4,1,4,$2,$3,$4,$5,$6,$7,$8,$9,$2,$3,0*
0 Add four circle primitives for the rounded corners*
1,1,$1+$1,$2,$3*
1,1,$1+$1,$4,$5*
1,1,$1+$1,$6,$7*
1,1,$1+$1,$8,$9*
0 Add four rect primitives between the rounded corners*
20,1,$1+$1,$2,$3,$4,$5,0*
20,1,$1+$1,$4,$5,$6,$7,0*
20,1,$1+$1,$6,$7,$8,$9,0*
20,1,$1+$1,$8,$9,$2,$3,0*%
G04 Aperture macros list end*
%ADD10C,0.800000*%
%ADD11C,6.400000*%
%ADD12R,1.700000X1.700000*%
%ADD13C,1.700000*%
%ADD14C,1.300000*%
%ADD15C,1.050000*%
%ADD16O,1.700000X1.700000*%
%ADD17O,1.500000X2.300000*%
%ADD18O,1.500000X3.300000*%
%ADD19C,2.500000*%
%ADD20C,1.900000*%
%ADD21R,1.900000X1.900000*%
%ADD22C,3.250000*%
%ADD23C,1.650000*%
%ADD24C,1.150000*%
%ADD25C,1.600000*%
%ADD26C,1.100000*%
%ADD27O,1.500000X2.700000*%
%ADD28O,3.700000X1.500000*%
%ADD29C,2.200000*%
%ADD30O,1.000000X1.800000*%
%ADD31O,1.000000X2.100000*%
%ADD32C,0.650000*%
%ADD33O,2.520000X3.400000*%
%ADD34C,2.000000*%
%ADD35O,1.200000X2.900000*%
%ADD36O,1.750000X1.200000*%
%ADD37RoundRect,0.250000X0.625000X-0.350000X0.625000X0.350000X-0.625000X0.350000X-0.625000X-0.350000X0*%
%ADD38C,0.900000*%
%ADD39C,8.000000*%
%ADD40C,3.200000*%
G04 APERTURE END LIST*
D10*
%TO.C,H1*%
X122992573Y-58020627D03*
X124689629Y-58723571D03*
X121295517Y-58723571D03*
X125392573Y-60420627D03*
D11*
X122992573Y-60420627D03*
D10*
X120592573Y-60420627D03*
X124689629Y-62117683D03*
X121295517Y-62117683D03*
X122992573Y-62820627D03*
%TD*%
D12*
%TO.C,J88*%
X235410000Y-78825000D03*
D13*
X237950000Y-78825000D03*
X240490000Y-78825000D03*
%TD*%
D14*
%TO.C,BT1*%
X170025000Y-92725000D03*
D15*
X170025000Y-85275000D03*
%TD*%
D10*
%TO.C,H1*%
X178625000Y-141850000D03*
X177922056Y-143547056D03*
X177922056Y-140152944D03*
X176225000Y-144250000D03*
D11*
X176225000Y-141850000D03*
D10*
X176225000Y-139450000D03*
X174527944Y-143547056D03*
X174527944Y-140152944D03*
X173825000Y-141850000D03*
%TD*%
%TO.C,H2*%
X149550000Y-142175000D03*
X148847056Y-143872056D03*
X148847056Y-140477944D03*
X147150000Y-144575000D03*
D11*
X147150000Y-142175000D03*
D10*
X147150000Y-139775000D03*
X145452944Y-143872056D03*
X145452944Y-140477944D03*
X144750000Y-142175000D03*
%TD*%
%TO.C,H3*%
X149550000Y-191908582D03*
X148847056Y-193605638D03*
X148847056Y-190211526D03*
X147150000Y-194308582D03*
D11*
X147150000Y-191908582D03*
D10*
X147150000Y-189508582D03*
X145452944Y-193605638D03*
X145452944Y-190211526D03*
X144750000Y-191908582D03*
%TD*%
%TO.C,H4*%
X178625000Y-191850000D03*
X177922056Y-193547056D03*
X177922056Y-190152944D03*
X176225000Y-194250000D03*
D11*
X176225000Y-191850000D03*
D10*
X176225000Y-189450000D03*
X174527944Y-193547056D03*
X174527944Y-190152944D03*
X173825000Y-191850000D03*
%TD*%
D16*
%TO.C,J1*%
X281600000Y-136605000D03*
X281600000Y-134065000D03*
D12*
X281600000Y-131525000D03*
%TD*%
D17*
%TO.C,J3*%
X224250000Y-59785000D03*
X209750000Y-59785000D03*
D18*
X224250000Y-65745000D03*
X209750000Y-65745000D03*
%TD*%
D19*
%TO.C,J6*%
X181225000Y-68550000D03*
X196775000Y-68550000D03*
D20*
X183285000Y-71850000D03*
X184555000Y-74390000D03*
X185825000Y-71850000D03*
X187095000Y-74390000D03*
X188365000Y-71850000D03*
X189635000Y-74390000D03*
X190905000Y-71850000D03*
X192175000Y-74390000D03*
X193445000Y-71850000D03*
D21*
X194715000Y-74390000D03*
D20*
X195325000Y-60600000D03*
X192785000Y-62120000D03*
X185215000Y-60600000D03*
X182675000Y-62120000D03*
D22*
X183285000Y-65500000D03*
X194715000Y-65500000D03*
%TD*%
D16*
%TO.C,J7*%
X191375000Y-190600609D03*
X191375000Y-188060609D03*
X191375000Y-185520609D03*
D12*
X191375000Y-182980609D03*
%TD*%
D16*
%TO.C,J8*%
X200900000Y-185510000D03*
X200900000Y-188050000D03*
D12*
X200900000Y-190590000D03*
%TD*%
D16*
%TO.C,J9*%
X195125000Y-190600000D03*
X195125000Y-188060000D03*
X195125000Y-185520000D03*
D12*
X195125000Y-182980000D03*
%TD*%
D16*
%TO.C,J10*%
X204550000Y-185510000D03*
X204550000Y-188050000D03*
D12*
X204550000Y-190590000D03*
%TD*%
D16*
%TO.C,J11*%
X128550000Y-95930000D03*
X128550000Y-93390000D03*
D12*
X128550000Y-90850000D03*
%TD*%
D16*
%TO.C,J12*%
X128525000Y-84540000D03*
X128525000Y-82000000D03*
X128525000Y-79460000D03*
D12*
X128525000Y-76920000D03*
%TD*%
D16*
%TO.C,J13*%
X124800000Y-84540000D03*
X124800000Y-82000000D03*
X124800000Y-79460000D03*
D12*
X124800000Y-76920000D03*
%TD*%
D16*
%TO.C,J14*%
X124825000Y-95930000D03*
X124825000Y-93390000D03*
D12*
X124825000Y-90850000D03*
%TD*%
D23*
%TO.C,J15*%
X157150000Y-113875000D03*
D24*
X137150000Y-113875000D03*
%TD*%
D25*
%TO.C,J16*%
X186225000Y-113600000D03*
D26*
X166225000Y-113600000D03*
%TD*%
D27*
%TO.C,J17*%
X146750000Y-64350000D03*
X146750000Y-59750000D03*
X137250000Y-64450000D03*
X137250000Y-59750000D03*
D28*
X142000000Y-60250000D03*
D29*
X142000000Y-66250000D03*
D25*
X142000000Y-57000000D03*
%TD*%
D30*
%TO.C,J18*%
X150580000Y-57475000D03*
D31*
X150580000Y-61675000D03*
D30*
X159220000Y-57475000D03*
D31*
X159220000Y-61675000D03*
D32*
X152010000Y-61155000D03*
X157790000Y-61155000D03*
%TD*%
D33*
%TO.C,J78*%
X239288999Y-66400000D03*
X252888999Y-66400000D03*
D34*
X242688999Y-66400000D03*
X249488999Y-66400000D03*
%TD*%
D30*
%TO.C,J79*%
X267360000Y-194860000D03*
D31*
X267360000Y-190660000D03*
D30*
X258720000Y-194860000D03*
D31*
X258720000Y-190660000D03*
D32*
X265930000Y-191180000D03*
X260150000Y-191180000D03*
%TD*%
D33*
%TO.C,J80*%
X257200000Y-66407500D03*
X270800000Y-66407500D03*
D34*
X260600000Y-66407500D03*
X267400000Y-66407500D03*
%TD*%
D30*
%TO.C,J81*%
X252860000Y-194910000D03*
D31*
X252860000Y-190710000D03*
D30*
X244220000Y-194910000D03*
D31*
X244220000Y-190710000D03*
D32*
X251430000Y-191230000D03*
X245650000Y-191230000D03*
%TD*%
D35*
%TO.C,J82*%
X239650000Y-188200000D03*
X226850000Y-188200000D03*
%TD*%
%TO.C,J83*%
X221550000Y-188200000D03*
X208750000Y-188200000D03*
%TD*%
D16*
%TO.C,JP1*%
X283450000Y-109610000D03*
X283450000Y-112150000D03*
D12*
X283450000Y-114690000D03*
%TD*%
D36*
%TO.C,M1*%
X282250000Y-96050000D03*
X282250000Y-98050000D03*
X282250000Y-100050000D03*
D37*
X282250000Y-102050000D03*
%TD*%
D38*
%TO.C,H72*%
X122575000Y-191375000D03*
X123453680Y-189253680D03*
X123453680Y-193496320D03*
X125575000Y-188375000D03*
D39*
X125575000Y-191375000D03*
D38*
X125575000Y-194375000D03*
X127696320Y-189253680D03*
X127696320Y-193496320D03*
X128575000Y-191375000D03*
%TD*%
%TO.C,H73*%
X280628680Y-191375000D03*
X281507360Y-189253680D03*
X281507360Y-193496320D03*
X283628680Y-188375000D03*
D39*
X283628680Y-191375000D03*
D38*
X283628680Y-194375000D03*
X285750000Y-189253680D03*
X285750000Y-193496320D03*
X286628680Y-191375000D03*
%TD*%
D40*
%TO.C,H6*%
X266025000Y-158850000D03*
%TD*%
%TO.C,H5*%
X203825000Y-158625000D03*
%TD*%
D38*
%TO.C,H74*%
X280628680Y-61096320D03*
X281507360Y-58975000D03*
X281507360Y-63217640D03*
X283628680Y-58096320D03*
D39*
X283628680Y-61096320D03*
D38*
X283628680Y-64096320D03*
X285750000Y-58975000D03*
X285750000Y-63217640D03*
X286628680Y-61096320D03*
%TD*%
D25*
%TO.C,A1*%
X269005749Y-102451916D03*
D26*
X200205749Y-102451916D03*
%TD*%
M02*
